<svg xmlns="http://www.w3.org/2000/svg" viewBox="0 0 32 32" fill="none">
  <rect width="32" height="32" rx="8" fill="#0d1117"/>
  <ellipse cx="16" cy="26" rx="8" ry="1.8" fill="#58a6ff" opacity=".2"/>
  <!-- Staunton-style knight -->
  <path fill="#58a6ff" d="M10 24.5h12c.55 0 1-.45 1-1v-.5c0-.55-.45-1-1-1h-1.2c.45-.55.7-1.25.7-2 0-1.65-1.35-3-3-3-.35 0-.7.06-1 .17C16.4 15.2 15.5 14 14 14c-1.65 0-3 1.35-3 3 0 .75.28 1.45.75 2-.95.45-1.55 1.4-1.55 2.5 0 1.5 1.2 2.7 2.7 2.7h.1z"/>
  <path fill="#79c0ff" d="M14.5 8.5c0-1.1.9-2 2-2s2 .9 2 2c0 .45-.15.85-.4 1.2.85.35 1.4 1.15 1.4 2.1 0 1.25-1 2.25-2.25 2.25h-1.5C14.5 12.05 13.5 11.05 13.5 9.8c0-.95.55-1.75 1.4-2.1-.25-.35-.4-.75-.4-1.2z"/>
  <circle cx="19.5" cy="10.5" r=".9" fill="#0d1117"/>
</svg>
